HIERARCHY
ROOT Hips
{
    OFFSET 0.000000 0.000000 0.000000
    CHANNELS 6 Xposition Yposition Zposition Zrotation Xrotation Yrotation
    JOINT Spine
    {
        OFFSET -0.000000 6.800997 0.000000
        CHANNELS 3 Xposition Yposition Zposition
        JOINT Spine1
        {
            OFFSET -0.000000 15.076976 0.000000
            CHANNELS 3 Xposition Yposition Zposition
            JOINT Neck
            {
                OFFSET -0.000000 16.735754 0.000000
                CHANNELS 3 Xposition Yposition Zposition
                JOINT Head
                {
                    OFFSET -0.000000 12.855545 1.658780
                    CHANNELS 3 Xposition Yposition Zposition
                    End Site
                    {
                        OFFSET -0.000000 16.587799 0.000000
                    }
                }
            }
            JOINT LeftShoulder
            {
                OFFSET 3.297964 11.877930 -0.634173
                CHANNELS 3 Xposition Yposition Zposition
                JOINT LeftArm
                {
                    OFFSET 14.955791 0.000000 0.000000
                    CHANNELS 3 Xposition Yposition Zposition
                    JOINT LeftForeArm
                    {
                        OFFSET 20.046839 0.000000 0.000000
                        CHANNELS 3 Xposition Yposition Zposition
                        JOINT LeftHand
                        {
                            OFFSET 18.470182 0.000000 0.000000
                            CHANNELS 3 Xposition Yposition Zposition
                            End Site
                            {
                                OFFSET 12.440849 0.000000 0.000000
                            }
                        }
                    }
                }
            }
            JOINT RightShoulder
            {
                OFFSET -3.336920 11.877930 -0.634173
                CHANNELS 3 Xposition Yposition Zposition
                JOINT RightArm
                {
                    OFFSET -14.955791 0.000000 0.000000
                    CHANNELS 3 Xposition Yposition Zposition
                    JOINT RightForeArm
                    {
                        OFFSET -20.046839 0.000000 0.000000
                        CHANNELS 3 Xposition Yposition Zposition
                        JOINT RightHand
                        {
                            OFFSET -18.470182 0.000000 0.000000
                            CHANNELS 3 Xposition Yposition Zposition
                            End Site
                            {
                                OFFSET -12.440849 0.000000 0.000000
                            }
                        }
                    }
                }
            }
        }
    }
    JOINT LeftUpLeg
    {
        OFFSET 8.293900 0.000000 0.000000
        CHANNELS 3 Xposition Yposition Zposition
        JOINT LeftLeg
        {
            OFFSET -0.000000 -37.774677 0.000000
            CHANNELS 3 Xposition Yposition Zposition
            JOINT LeftFoot
            {
                OFFSET -0.000000 -32.041210 0.000000
                CHANNELS 3 Xposition Yposition Zposition
                JOINT LeftToeBase
                {
                    OFFSET -0.000000 -5.391035 12.440849
                    CHANNELS 3 Xposition Yposition Zposition
                    End Site
                    {
                        OFFSET -0.000000 0.000000 3.317559
                    }
                }
            }
        }
    }
    JOINT RightUpLeg
    {
        OFFSET -8.293900 0.000000 0.000000
        CHANNELS 3 Xposition Yposition Zposition
        JOINT RightLeg
        {
            OFFSET -0.000000 -37.774677 0.000000
            CHANNELS 3 Xposition Yposition Zposition
            JOINT RightFoot
            {
                OFFSET -0.000000 -32.041210 0.000000
                CHANNELS 3 Xposition Yposition Zposition
                JOINT RightToeBase
                {
                    OFFSET -0.000000 -5.391035 12.440849
                    CHANNELS 3 Xposition Yposition Zposition
                    End Site
                    {
                        OFFSET -0.000000 0.000000 3.317559
                    }
                }
            }
        }
    }
}
MOTION
Frames: 9
Frame Time: 0.050000
-0.135037 59.825073 -0.157480 -0.424319 67.407867 -0.816425 0.797431 81.824829 -4.452219 1.720795 97.505882 -5.291413 1.809560 110.257462 -3.107331 0.600130 127.771835 -5.653264 4.791302 92.754387 -5.668904 16.681606 94.858833 -4.426044 28.002657 68.471489 -4.227850 14.309895 77.500824 15.319672 15.190357 84.328400 26.570396 -2.479050 93.668465 -4.696617 -16.447855 95.369987 -7.280208 -26.302170 68.670464 -10.431396 -18.282341 76.360909 10.853470 -2.219330 85.478813 22.285748 9.409877 59.760967 -0.731330 14.009139 26.636637 -4.197142 20.034536 -15.536958 -5.225217 20.220625 -20.610556 8.590639 18.702906 -19.461224 10.908239 -9.788902 59.826534 0.709058
-0.134028 59.827568 -0.155218 -0.435328 67.410706 -0.809156 0.821736 81.826180 -4.439406 1.712132 97.537720 -5.248064 1.825752 110.235580 -3.104498 0.566206 127.758217 -5.680886 4.805054 92.776276 -5.672095 16.663166 94.924904 -4.417939 27.887701 68.429977 -4.264687 14.483410 77.473984 15.305111 15.429665 84.317497 26.563606 -2.509490 93.668381 -4.713463 -16.370808 95.376938 -7.259492 -26.272453 68.719238 -10.556774 -18.447128 76.315529 10.707829 -2.082535 85.511101 22.477451 9.404909 59.740406 -0.742356 13.982265 26.590603 -4.246448 19.912518 -15.527892 -5.171206 20.240749 -20.598690 8.544968 18.732334 -19.447701 10.967707 -9.786489 59.823788 0.732201
-0.133875 59.826500 -0.153996 -0.448196 67.412910 -0.795576 0.853995 81.823196 -4.452984 1.677405 97.530464 -5.230520 1.778216 110.247864 -3.042691 0.575777 127.770233 -5.709675 4.816180 92.764130 -5.674673 16.637085 94.974747 -4.447404 27.681715 68.374069 -4.152508 14.687775 77.297379 15.351868 15.535213 84.403275 26.475506 -2.541417 93.657730 -4.746121 -16.318548 95.327415 -7.312895 -26.310909 68.665260 -10.528564 -18.568928 76.267517 10.575771 -1.778099 85.239273 22.525715 9.404787 59.724903 -0.715334 13.953213 26.521530 -4.252851 19.836630 -15.513587 -5.172055 20.229755 -20.592945 8.542934 18.785276 -19.445799 11.077434 -9.789923 59.841236 0.720569
-0.132244 59.828407 -0.151703 -0.453689 67.409676 -0.774322 0.882571 81.840469 -4.450584 1.650825 97.540474 -5.210432 1.752945 110.280220 -2.978397 0.570528 127.767502 -5.707424 4.802479 92.790070 -5.684797 16.621775 95.024391 -4.487139 27.540030 68.470871 -4.009243 14.985199 77.093475 15.349117 15.531715 84.593231 26.345184 -2.562412 93.669037 -4.757080 -16.303293 95.332886 -7.377460 -26.289968 68.831467 -10.454515 -18.534039 76.223267 10.494003 -1.373055 84.955444 22.549953 9.406181 59.724644 -0.707787 13.956100 26.466524 -4.241392 19.707073 -15.488295 -5.148209 20.255569 -20.566486 8.663942 18.860123 -19.414978 11.188098 -9.778465 59.848217 0.701092
-0.130016 59.832191 -0.145137 -0.472470 67.396095 -0.759523 0.901233 81.859978 -4.454906 1.655340 97.509811 -5.179748 1.734468 110.306053 -2.955737 0.577116 127.764984 -5.634675 4.748160 92.819267 -5.628976 16.539057 95.047081 -4.535123 27.441149 68.594879 -3.542057 15.276249 76.869621 15.121601 15.508568 84.673233 26.226921 -2.581645 93.631004 -4.728432 -16.266314 95.352333 -7.397526 -25.994421 68.906258 -10.513735 -18.581074 75.899384 10.047821 -1.127022 84.999748 22.541904 9.389619 59.722908 -0.716024 13.961156 26.465216 -4.154146 19.512896 -15.460429 -5.113090 20.380041 -20.575388 8.747843 18.924414 -19.378361 11.328606 -9.754957 59.839882 0.685743
-0.133843 59.828671 -0.147507 -0.483479 67.392876 -0.752742 0.905750 81.896103 -4.465770 1.680845 97.492775 -5.164446 1.660132 110.376442 -2.991895 0.611246 127.791023 -5.620770 4.715682 92.849518 -5.564937 16.516045 95.034264 -4.521807 27.437567 68.618927 -3.209904 15.447140 76.818565 15.000813 15.389854 84.660309 26.282219 -2.557311 93.617859 -4.757065 -16.186098 95.333870 -7.370474 -25.845510 68.806969 -10.419086 -18.677483 75.471092 9.989479 -1.106590 85.014252 22.619183 9.392811 59.727654 -0.701334 13.923388 26.465740 -4.174120 19.455141 -15.468436 -5.130799 20.384783 -20.609453 8.667395 18.901766 -19.360085 11.375151 -9.758676 59.848412 0.689121
-0.139996 59.821281 -0.153396 -0.480340 67.401665 -0.765156 0.899049 81.972137 -4.488640 1.647344 97.548210 -5.154295 1.611567 110.475914 -3.019873 0.651630 127.893822 -5.609178 4.712528 92.914154 -5.500341 16.572197 95.090843 -4.597550 27.376867 68.569107 -3.124638 15.394508 76.665817 15.247883 15.199421 84.565849 26.462391 -2.533058 93.694084 -4.828477 -16.194386 95.318329 -7.416617 -25.725105 68.732315 -10.279964 -18.765221 75.165878 10.241367 -1.146538 85.027489 22.616589 9.413010 59.732758 -0.697856 13.853291 26.366411 -4.201961 19.384817 -15.487649 -5.193085 20.184505 -20.624136 8.539431 18.696854 -19.373100 11.408486 -9.776394 59.872223 0.671078
-0.146771 59.812820 -0.160887 -0.461049 67.420868 -0.779001 0.896095 82.035950 -4.506825 1.606606 97.619827 -5.162428 1.576013 110.571205 -2.978356 0.734264 128.021393 -5.652884 4.753380 92.938522 -5.513172 16.683661 95.136292 -4.627275 27.349554 68.574524 -3.462908 14.916214 76.729179 15.752670 15.239761 84.494057 26.618500 -2.462848 93.816681 -4.905514 -16.303633 95.320282 -7.573033 -25.842566 68.729927 -9.954563 -18.557537 75.415085 10.913322 -1.289223 84.996506 22.541210 9.439100 59.745567 -0.661711 13.775915 26.233223 -4.169475 19.455078 -15.509360 -5.166274 19.864607 -20.590271 8.377892 18.460070 -19.406298 11.335483 -9.801933 59.902836 0.648026
-0.148454 59.810722 -0.163374 -0.465948 67.433968 -0.791039 0.914053 82.086266 -4.503674 1.568700 97.706963 -5.147513 1.572929 110.661720 -2.933788 0.730490 128.124329 -5.647569 4.752015 92.959648 -5.533560 16.787935 95.224571 -4.674382 27.204885 68.547752 -3.557541 14.517601 76.752884 16.114132 15.342934 84.593788 26.747555 -2.424311 93.893875 -4.942951 -16.457876 95.334526 -7.770247 -25.810883 68.727127 -9.918194 -18.445580 75.628342 11.159176 -1.441895 85.047729 22.533916 9.459082 59.759621 -0.642229 13.747080 26.051064 -4.180970 19.400837 -15.507150 -5.137994 19.614357 -20.533468 8.330267 18.156651 -19.408443 11.352888 -9.817617 59.914120 0.603169
